<?xml version="1.0" encoding="UTF-8" standalone="no"?>
<!-- Created with Inkscape (http://www.inkscape.org/) -->

<svg
   xmlns:dc="http://purl.org/dc/elements/1.1/"
   xmlns:cc="http://creativecommons.org/ns#"
   xmlns:rdf="http://www.w3.org/1999/02/22-rdf-syntax-ns#"
   xmlns:svg="http://www.w3.org/2000/svg"
   xmlns="http://www.w3.org/2000/svg"
   xmlns:sodipodi="http://sodipodi.sourceforge.net/DTD/sodipodi-0.dtd"
   xmlns:inkscape="http://www.inkscape.org/namespaces/inkscape"
   width="102.02981mm"
   height="94.672279mm"
   viewBox="0 0 361.52294 335.45296"
   id="svg5529"
   version="1.1"
   inkscape:version="0.91 r13725"
   sodipodi:docname="character-icon-3.2.svg">
  <defs
     id="defs5531" />
  <sodipodi:namedview
     id="base"
     pagecolor="#ffffff"
     bordercolor="#666666"
     borderopacity="1.0"
     inkscape:pageopacity="0.0"
     inkscape:pageshadow="2"
     inkscape:zoom="0.98994949"
     inkscape:cx="159.28466"
     inkscape:cy="172.60728"
     inkscape:document-units="px"
     inkscape:current-layer="layer1"
     showgrid="false"
     fit-margin-top="0"
     fit-margin-left="0"
     fit-margin-right="0"
     fit-margin-bottom="0"
     inkscape:window-width="1366"
     inkscape:window-height="704"
     inkscape:window-x="0"
     inkscape:window-y="27"
     inkscape:window-maximized="1" />
  <metadata
     id="metadata5534">
    <rdf:RDF>
      <cc:Work
         rdf:about="">
        <dc:format>image/svg+xml</dc:format>
        <dc:type
           rdf:resource="http://purl.org/dc/dcmitype/StillImage" />
        <dc:title></dc:title>
      </cc:Work>
    </rdf:RDF>
  </metadata>
  <g
     inkscape:label="Capa 1"
     inkscape:groupmode="layer"
     id="layer1"
     transform="translate(-187.43913,-255.31069)">
    <path
       style="opacity:1;fill:none;fill-opacity:1;stroke:#1a1a1a;stroke-width:9.52047825;stroke-miterlimit:4;stroke-dasharray:none;stroke-dashoffset:0;stroke-opacity:1"
       d="m 346.44729,286.23097 a 22.426517,22.426517 0 0 0 -21.0204,14.6864 44.063969,44.063969 0 0 0 -12.3063,-1.7851 44.063969,44.063969 0 0 0 -34.0908,16.1893 44.063969,44.063969 0 0 0 -11.1974,-1.5012 44.063969,44.063969 0 0 0 -39.3869,24.4233 44.063969,44.063969 0 0 0 -26.7087,40.4486 44.063969,44.063969 0 0 0 5.0932,20.5082 44.063969,44.063969 0 0 0 -0.1977,3.9708 44.063969,44.063969 0 0 0 16.1891,34.0925 44.063969,44.063969 0 0 0 -1.501,11.1958 44.063969,44.063969 0 0 0 0.5037,6.3593 44.063969,44.063969 0 0 0 -9.0725,26.6884 44.063969,44.063969 0 0 0 29.4185,41.5034 44.063969,44.063969 0 0 0 36.6788,19.6968 44.063969,44.063969 0 0 0 13.7263,-2.2499 44.063969,44.063969 0 0 0 36.4574,19.3858 44.063969,44.063969 0 0 0 34.5523,-16.7944 44.063969,44.063969 0 0 0 21.7507,5.7779 44.063969,44.063969 0 0 0 26.3115,-8.7751 44.063969,44.063969 0 0 0 22.6483,6.3274 44.063969,44.063969 0 0 0 36.689,-19.7071 44.063969,44.063969 0 0 0 2.4799,0.1234 44.063969,44.063969 0 0 0 44.0643,-44.0643 44.063969,44.063969 0 0 0 -3.2575,-16.5526 44.063969,44.063969 0 0 0 8.7649,-26.2862 44.063969,44.063969 0 0 0 -1.5298,-11.4526 44.063969,44.063969 0 0 0 13.1582,-31.3878 44.063969,44.063969 0 0 0 -20.897,-37.4176 44.063969,44.063969 0 0 0 0.088,-1.7513 44.063969,44.063969 0 0 0 -16.1638,-34.0722 22.426517,22.426517 0 0 0 2.2922,-9.813 22.426517,22.426517 0 0 0 -22.4269,-22.4251 22.426517,22.426517 0 0 0 -16.7978,7.5967 44.063969,44.063969 0 0 0 -27.6874,-9.8298 44.063969,44.063969 0 0 0 -37.7794,21.4887 44.063969,44.063969 0 0 0 -23.4208,-6.8006 44.063969,44.063969 0 0 0 -3.4739,0.1538 22.426517,22.426517 0 0 0 -21.9502,-17.9506 z"
       id="path4395"
       inkscape:connector-curvature="0" />
    <g
       id="g4693"
       transform="matrix(0.84526262,0,0,0.84526262,-901.98905,-795.80327)">
      <path
         sodipodi:nodetypes="csssccc"
         inkscape:connector-curvature="0"
         id="path4695"
         d="m 1586.4353,1490.5252 c 0,16.8067 -9.3706,41.3079 -24.5208,52.3218 -15.1502,11.0139 -36.0801,8.5404 -59.1985,8.5404 -23.1184,0 -44.0483,2.4735 -59.1985,-8.5404 -15.1502,-11.0139 -24.5208,-35.5151 -24.5208,-52.3218 4.5016,-42.6598 49.4759,-60.4805 83.7193,-60.8622 37.3819,1.0482 82.9155,22.7435 83.7193,60.8622 z"
         style="opacity:1;fill:#1a1a1a;fill-opacity:1;stroke:#ffffff;stroke-width:3.50401354;stroke-miterlimit:4;stroke-dasharray:none;stroke-opacity:1" />
      <circle
         r="61.114227"
         cy="1394.1422"
         cx="1502.7161"
         id="circle4697"
         style="opacity:1;fill:#1a1a1a;fill-opacity:1;stroke:#ffffff;stroke-width:5;stroke-miterlimit:4;stroke-dasharray:none;stroke-opacity:1" />
    </g>
  </g>
</svg>
